<?xml version="1.0" encoding="UTF-8"?>
<svg width="86px" height="80px" viewBox="0 0 86 80" version="1.1" xmlns="http://www.w3.org/2000/svg" xmlns:xlink="http://www.w3.org/1999/xlink">
    <!-- Generator: Sketch 60 (88103) - https://sketch.com -->
    <title>Group</title>
    <desc>Created with Sketch.</desc>
    <g id="Page-1" stroke="none" stroke-width="1" fill="none" fill-rule="evenodd">
        <g id="Accounts" transform="translate(-913.000000, -198.000000)" fill="#65588E" fill-rule="nonzero">
            <g id="Group" transform="translate(913.000000, 198.000000)">
                <polygon id="Path" points="80.0495356 75.0409357 80.0495356 70.0818713 75.0464396 70.0818713 75.0464396 40.3274854 80.0495356 40.3274854 80.0495356 35.3684211 65.0402477 35.3684211 65.0402477 40.3274854 70.0433437 40.3274854 70.0433437 70.0818713 55.0340557 70.0818713 55.0340557 40.3274854 60.0371517 40.3274854 60.0371517 35.3684211 45.0278638 35.3684211 45.0278638 40.3274854 50.0309598 40.3274854 50.0309598 70.0818713 35.0216718 70.0818713 35.0216718 40.3274854 40.0247678 40.3274854 40.0247678 35.3684211 25.0154799 35.3684211 25.0154799 40.3274854 30.0185759 40.3274854 30.0185759 70.0818713 15.0092879 70.0818713 15.0092879 40.3274854 20.0123839 40.3274854 20.0123839 35.3684211 5.00309598 35.3684211 5.00309598 40.3274854 10.006192 40.3274854 10.006192 70.0818713 5.00309598 70.0818713 5.00309598 75.0409357 0 75.0409357 0 80 85.0526316 80 85.0526316 75.0409357"></polygon>
                <polygon id="Path" points="40.0247678 0 45.0278638 0 85.0526316 25.2631579 85.0526316 30.3157895 0 30.3157895 0 25.2631579"></polygon>
            </g>
        </g>
    </g>
</svg>