<?xml version="1.0"?>
<svg xmlns="http://www.w3.org/2000/svg" xmlns:xlink="http://www.w3.org/1999/xlink" xmlns:svgjs="http://svgjs.com/svgjs" version="1.1" width="512" height="512" x="0" y="0" viewBox="0 0 469.926 469.926" style="enable-background:new 0 0 512 512" xml:space="preserve" class=""><g>
<g xmlns="http://www.w3.org/2000/svg">
	<g>
		<path d="M438.944,216.574c-12.048-12.555-25.979-22.758-40.645-31.887c-1.341-0.871-1.813-1.745-2.146-3.288    c-2.252-10.136-1.343-20.408-1.378-30.61c-0.134-21.012,0.067-42.023-0.134-62.965c-0.203-15.508-12.018-27.322-27.523-28.126    c-0.939-0.067-1.879-0.067-2.817-0.067c-52.293,0-104.551,0-156.811,0.067c-5.502,0-10.606-1.613-15.842-2.754    c-18.761-4.027-36.852-10.203-55.043-16.111c-4.733-1.543-9.6-2.618-14.366-3.894c-1.208,0-2.451,0-3.658,0    c0.302,0.673,0.436,1.476,0.906,2.082c4.968,6.243,10.002,12.485,15.037,18.728c0.404,0.538,0.805,1.073,1.41,1.879    c-1.143,0-1.881,0-2.686,0c-27.455,0-54.977,0-82.5,0c-14.902,0-26.615,9.733-29.065,24.031c-0.334,1.88-0.403,3.758-0.403,5.707    c0,23.83-0.034,47.66,0.035,71.558c0,1.745-0.471,2.685-2.014,3.422c-2.218,1.073-4.33,2.35-6.411,3.757    c2.685-0.131,5.403-0.332,8.39-0.538c0,0.805,0,1.479,0,2.082c0,8.996-0.034,17.991,0,26.917c0.035,1.343-0.402,2.217-1.511,2.953    c-3.859,2.686-7.652,5.305-11.377,8.056c-2.886,2.148-5.604,4.364-8.39,6.579c0,0.269,0,0.539,0,0.806    c6.342,1.274,12.686,2.617,19.031,3.825c1.778,0.334,2.282,1.14,2.282,2.953c-0.035,33.766-0.035,67.463-0.035,101.229    c0,26.916-0.034,53.903,0,80.885c0,14.433,9.465,25.979,23.428,28.599c1.879,0.398,3.893,0.537,5.838,0.537    c104.921,0,209.841,0,314.827,0c16.512,0,29-11.953,29.267-28.396c0.269-16.445,0.064-32.825,0.064-49.203    c0-19.536,0-39.071,0-58.672c0-0.804,0-1.541,0-2.481c6.747,1.343,12.352,4.23,16.614,9.332    c7.015,8.255,13.931,16.579,20.878,24.971c3.523,4.297,6.98,8.66,10.539,13.021c1.039,1.211,2.248,2.218,3.491,3.424    c0.368-0.47,0.602-0.602,0.706-0.871c5.704-12.287,11.646-24.302,17.049-36.785c2.383-5.505,4.096-11.683,5.304-17.653    c1.544-7.585,0.033-15.306-1.711-22.758C462.976,247.315,452.706,230.87,438.944,216.574z M455.055,298.803    c-1.944,10.003-3.824,19.936-8.29,29.402c-0.672-1.476-1.311-2.953-2.047-4.361c-5.103-10.067-11.683-19.066-18.528-27.991    c-6.311-8.188-14.431-13.828-23.226-18.797c-17.487-9.87-36.08-17.249-54.877-24.166c-0.336-0.132-0.74-0.201-1.176-0.064    c11.847,6.445,23.695,12.891,35.577,19.334c-0.104,0.199-0.201,0.468-0.301,0.67c-6.68-1.81-13.461-3.422-20.072-5.501    c-10.37-3.091-7.219-1.611-31.015-8.795c-43.127-11.748-50.008-3.961-50.008-3.961c41.516,4.362,49.707,12.956,71.12,24.033    c-1.072,2.815-2.081,5.571-3.088,8.323c-1.543,4.159-3.055,8.321-4.7,12.48c-1.007,2.62-0.873,5.037,0.102,7.655    c8.56,22.354,17.486,44.704,25.979,67.061c0.47,1.208,0.739,2.616,0.839,3.894v38.462c-0.065,0.738-0.065,1.611-0.401,2.352    c0,0.065-0.104,0.133-0.136,0.202c-3.76,4.427-8.456,5.436-14.263,5.436c-69.612-0.201-139.22-0.064-208.799-0.064    c-33.262,0-66.523,0-99.751-0.067c-1.678,0-3.423-0.069-5.034-0.338c-7.787-1.275-12.384-6.779-12.889-15.572    c-0.167-3.76,0-7.52,0-11.344c0-0.473,0.201-1.01,0.436-1.478c8.559-16.648,15.205-34.101,21.783-51.555    c0.502-1.341,1.008-2.616,1.411-4.026c-5.907,11.009-14.298,19.869-23.226,28.262c-0.268-0.067-0.504-0.137-0.737-0.201    c0.369-5.504,0.437-11.076,1.208-16.581c3.02-21.681,6.243-43.362,9.396-65.046c0-0.133-0.066-0.268-0.2-0.804    c-3.289,10.874-6.511,21.416-9.7,31.886c-0.101,0-0.235,0-0.369,0c0-1.072,0-2.083,0-3.091c0-20.205-0.033-40.343,0-60.545    c0-1.212,0.269-2.555,0.804-3.628c4.564-10.064,9.265-20.07,13.895-30.072c1.277-2.685,0.335-5.232-2.55-5.907    c-4.7-1.006-9.397-1.811-14.096-2.548c-3.021-0.539-6.042-0.807-9.6-1.212c1.142-0.737,1.88-1.205,2.619-1.742    c23.562-15.643,44.572-34.101,63.099-55.517c0.938-1.073,2.718-2.148,1.746-3.961c-0.906-1.676-2.887-1.409-4.396-1.074    c-5.976,1.277-11.916,2.686-17.857,4.231c-2.854,0.672-5.605,1.677-8.56,2.281c20.642-17.519,41.284-35.041,62.16-52.761    C99.413,89.577,81.656,77.292,63.902,65.008c0.066-0.201,0.135-0.335,0.201-0.537c34.47,6.108,68.94,12.15,103.912,18.258    c-10.74-11.612-21.111-22.823-31.817-34.369c0.872,0.201,1.343,0.269,1.745,0.402c35.409,11.815,70.751,23.697,106.194,35.308    c33.899,11.076,66.053,25.844,95.388,46.317c11.85,8.258,22.592,17.79,30.945,29.669c4.128,5.907,7.385,12.219,8.862,19.401    c0.1,0.538-0.202,1.61-0.635,1.88c-2.888,1.61-4.869,4.027-6.411,6.847c-2.755,5.168-4.132,10.675-3.896,16.514    c0.136,3.222-1.072,4.901-4.362,4.901c-2.686,0-5.406-0.268-7.987-0.942c-3.425-0.871-6.781-2.148-10.173-3.287    c-0.571-0.134-1.074-0.334-1.644-0.538c7.45,4.834,15.037,9.13,24.031,9.935c3.892,0.334,7.854,0.065,11.009-2.819    c1.042-0.939,1.442-1.88,0.873-3.356c-1.613-4.297-0.473-8.055,2.75-11.278c1.144-1.139,2.082-1.343,3.626-0.472    c15.169,9.13,29.199,19.601,41.62,32.222c7.251,7.317,13.659,15.239,19.03,24.102    C455.794,267.322,458.211,282.557,455.055,298.803z" fill="#ffffff" data-original="#000000" style="" class=""/>
		<path d="M254.378,188.716c-5.502-0.872-11.007-1.879-16.478-3.018c-1.343-0.27-1.981-0.068-2.754,1.073    c-1.947,2.752-4.834,3.624-8.055,3.019c-2.953-0.536-5.504-2.281-5.773-5.235c-0.235-2.953-1.946-3.291-4.026-3.828    c-0.673-0.131-1.345-0.268-1.947-0.537c-1.007-0.469-1.678-0.132-2.416,0.673c-4.766,5.571-6.646,11.946-5.036,19.196    c2.349,10.673,12.553,18.193,24.433,18.193c0.068,0.133,0.102,0.333,0.135,0.538c3.457-0.871,7.05-1.343,10.271-2.686    c10.404-4.163,16.078-14.297,14.231-24.703C256.694,189.788,256.159,189.05,254.378,188.716z" fill="#ffffff" data-original="#000000" style="" class=""/>
	</g>
</g>
<g xmlns="http://www.w3.org/2000/svg">
</g>
<g xmlns="http://www.w3.org/2000/svg">
</g>
<g xmlns="http://www.w3.org/2000/svg">
</g>
<g xmlns="http://www.w3.org/2000/svg">
</g>
<g xmlns="http://www.w3.org/2000/svg">
</g>
<g xmlns="http://www.w3.org/2000/svg">
</g>
<g xmlns="http://www.w3.org/2000/svg">
</g>
<g xmlns="http://www.w3.org/2000/svg">
</g>
<g xmlns="http://www.w3.org/2000/svg">
</g>
<g xmlns="http://www.w3.org/2000/svg">
</g>
<g xmlns="http://www.w3.org/2000/svg">
</g>
<g xmlns="http://www.w3.org/2000/svg">
</g>
<g xmlns="http://www.w3.org/2000/svg">
</g>
<g xmlns="http://www.w3.org/2000/svg">
</g>
<g xmlns="http://www.w3.org/2000/svg">
</g>
</g></svg>
