<?xml version="1.0" encoding="UTF-8"?>
<svg width="24px" height="24px" viewBox="0 0 24 24" version="1.1" xmlns="http://www.w3.org/2000/svg" xmlns:xlink="http://www.w3.org/1999/xlink">
    <!-- Generator: Sketch 60 (88103) - https://sketch.com -->
    <title>Group</title>
    <desc>Created with Sketch.</desc>
    <g id="Page-1" stroke="none" stroke-width="1" fill="none" fill-rule="evenodd">
        <g id="Spendings" transform="translate(-1335.000000, -697.000000)" fill="#858585" fill-rule="nonzero">
            <g id="Group" transform="translate(1335.000000, 697.000000)">
                <path d="M23.7810951,19.281079 C23.7810014,19.2809852 23.7809076,19.2808915 23.7808139,19.2808446 L16.5000897,11.9999773 L23.7808139,4.71911004 C23.7809076,4.71901629 23.7810014,4.71896942 23.7810951,4.71887567 C23.8594702,4.64045371 23.9161421,4.54885986 23.9524703,4.45131288 C24.051986,4.18468759 23.9952203,3.87282788 23.7808139,3.65842139 L20.3414519,0.219058288 C20.1270455,0.00469868048 19.8152797,-0.052020131 19.5486076,0.0474956019 C19.4511075,0.0838237663 19.3594668,0.140495703 19.280998,0.218823913 C19.280998,0.218917663 19.2809043,0.218964538 19.2808105,0.219058288 L12,7.49997244 L4.71917462,0.219105163 C4.71908087,0.219011413 4.719034,0.218964538 4.71894025,0.218870788 C4.64051831,0.140542578 4.54892449,0.0838706414 4.45142442,0.047542477 C4.18470547,-0.052020131 3.87293961,0.00474555553 3.6585332,0.219105163 L0.219124381,3.65851514 C0.00471797108,3.87292163 -0.0520008213,4.18473446 0.0475148781,4.45135975 C0.0838899053,4.54885986 0.140561823,4.64054746 0.218890006,4.71892254 C0.218983756,4.71896942 0.219030631,4.71906317 0.219124381,4.71915692 L7.4999892,11.9999773 L0.219124381,19.2808915 C0.219077506,19.2809852 0.218983756,19.2810321 0.218936881,19.2811258 C0.140608698,19.3595478 0.0839367803,19.4511416 0.0475148781,19.5486418 C-0.0520476964,19.815267 0.00471797108,20.1271268 0.219124381,20.3415332 L3.6585332,23.7808963 C3.87298649,23.9953028 4.18475235,24.0520216 4.45142442,23.9525059 C4.54892449,23.9161309 4.64056519,23.8594589 4.71898712,23.7811307 C4.719034,23.781037 4.71912775,23.7809901 4.7192215,23.7808963 L12.0000394,16.5000291 L19.2808574,23.7808963 C19.2809511,23.7809432 19.2810449,23.781037 19.2811386,23.7810838 C19.3596074,23.8594589 19.4511544,23.9161309 19.5486545,23.9525059 C19.8153265,24.0520216 20.1271861,23.9953028 20.3414988,23.7808963 L23.7808607,20.3414864 C23.9952672,20.1270799 24.0520328,19.8152202 23.9525171,19.5485949 C23.9161421,19.4510948 23.8594702,19.3595009 23.7810951,19.281079 Z" id="Path"></path>
            </g>
        </g>
    </g>
</svg>