<?xml version="1.0" encoding="UTF-8"?>
<svg width="107px" height="80px" viewBox="0 0 107 80" version="1.1" xmlns="http://www.w3.org/2000/svg" xmlns:xlink="http://www.w3.org/1999/xlink">
    <!-- Generator: Sketch 60 (88103) - https://sketch.com -->
    <title>Group</title>
    <desc>Created with Sketch.</desc>
    <g id="Page-1" stroke="none" stroke-width="1" fill="none" fill-rule="evenodd">
        <g id="Accounts" transform="translate(-1218.000000, -198.000000)" fill="#65588E" fill-rule="nonzero">
            <g id="Group" transform="translate(1218.000000, 198.000000)">
                <path d="M96.1046512,0 L9.94186047,0 C4.47383721,0 0,4.5 0,10 L0,70 C0,75.5 4.47383721,80 9.94186047,80 L96.1046512,80 C101.572674,80 106.046512,75.5 106.046512,70 L106.046512,10 C106.046512,4.5 101.572674,0 96.1046512,0 Z M9.83388704,6.51162791 L96.2126246,6.51162791 C98.0134967,6.51162791 99.5348837,8.00258721 99.5348837,9.76744186 L99.5348837,19.5348837 L6.51162791,19.5348837 L6.51162791,9.76744186 C6.51162791,8.00258721 8.03301495,6.51162791 9.83388704,6.51162791 Z M96.2126246,73.4883721 L9.83388704,73.4883721 C8.03301495,73.4883721 6.51162791,71.954814 6.51162791,70.1395349 L6.51162791,40 L99.5348837,40 L99.5348837,70.1395349 C99.5348837,71.954814 98.0134967,73.4883721 96.2126246,73.4883721 Z M13.0232558,53.9534884 L19.5348837,53.9534884 L19.5348837,66.9767442 L13.0232558,66.9767442 L13.0232558,53.9534884 Z M26.9767442,53.9534884 L33.4883721,53.9534884 L33.4883721,66.9767442 L26.9767442,66.9767442 L26.9767442,53.9534884 Z M40,53.9534884 L46.5116279,53.9534884 L46.5116279,66.9767442 L40,66.9767442 L40,53.9534884 Z" id="Shape"></path>
            </g>
        </g>
    </g>
</svg>