<?xml version="1.0" encoding="UTF-8"?>
<svg width="928px" height="864px" viewBox="0 0 928 864" version="1.1" xmlns="http://www.w3.org/2000/svg" xmlns:xlink="http://www.w3.org/1999/xlink">
    <!-- Generator: Sketch 60 (88103) - https://sketch.com -->
    <title>Shape</title>
    <desc>Created with Sketch.</desc>
    <g id="Page-1" stroke="none" stroke-width="1" fill="none" fill-rule="evenodd">
        <g id="Accounts" transform="translate(-256.000000, -705.000000)" fill="#65588E" fill-rule="nonzero">
            <g id="Group" transform="translate(256.000000, 705.000000)">
                <path d="M544,608 C508.672,608 480,579.328 480,544 L480,480 C480,444.64 508.672,416 544,416 L928,416 L928,608 L544,608 Z M592,466.656 C565.504,466.656 544,488.16 544,514.656 C544,541.184 565.504,562.656 592,562.656 C618.528,562.656 640,541.184 640,514.656 C640,488.16 618.528,466.656 592,466.656 Z M448,480 L448,544 C448,596.992 491.008,640 544,640 L864,640 L864,768 C864,820.992 821.024,864 768,864 L96,864 C43.008,864 0,820.992 0,768 L0,160 C0,106.976 43.008,64 96,64 L404.224,64 L329.056,95.328 L80.032,95.328 C53.536,95.328 32.032,116.832 32.032,143.328 C32.032,169.856 53.536,191.328 80.032,191.328 L864,191.328 L864,384 L544,384 C491.008,384 448,426.976 448,480 Z M128.032,256 L64.032,256 L64.032,320 L96.032,320 L96.032,288 L128.032,288 L128.032,256 Z M128.032,352 L64.032,352 L64.032,416 L97.344,416 L96.032,384 L128.032,384.672 L128.032,352 L128.032,352 Z M128.032,448 L64.032,448 L64.032,512 L96.704,512 L96.032,480 L128.032,480 L128.032,448 Z M128.032,544 L64.032,544 L64.032,608 L96.704,608 L96.032,576 L128.032,576.672 L128.032,544 Z M128.032,640 L64.032,640 L64.032,704 L96.032,704 L96.032,672 L128.032,672 L128.032,640 Z M128.032,736 L64.032,736 L64.032,800 L96.704,800 L96.032,768.672 L128.032,768.672 L128.032,736 Z M256.032,158.016 L632.032,0 L704.032,158.016 L256.032,158.016 Z M692.672,64 L768,64 C796.032,64 820.992,76.192 838.56,95.328 L707.968,95.328 L692.672,64 L692.672,64 Z" id="Shape"></path>
            </g>
        </g>
    </g>
</svg>