<?xml version="1.0" encoding="UTF-8"?>
<svg width="80px" height="80px" viewBox="0 0 80 80" version="1.1" xmlns="http://www.w3.org/2000/svg" xmlns:xlink="http://www.w3.org/1999/xlink">
    <!-- Generator: Sketch 60 (88103) - https://sketch.com -->
    <title>Group</title>
    <desc>Created with Sketch.</desc>
    <g id="Page-1" stroke="none" stroke-width="1" fill="none" fill-rule="evenodd">
        <g id="Accounts" transform="translate(-293.000000, -199.000000)" fill="#65588E" fill-rule="nonzero">
            <g id="Group" transform="translate(293.000000, 199.000000)">
                <path d="M40,0 C17.9086667,0 0,17.9086667 0,40 C0,62.0913333 17.9086667,80 40,80 C62.0915,80 80,62.0915 80,40 C80,17.9085 62.0915,0 40,0 Z M40,72 C22.3268333,72 8,57.6731667 8,40 C8,22.3268333 22.3268333,8 40,8 C57.6731667,8 72,22.3268333 72,40 C72,57.6731667 57.6731667,72 40,72 Z M42.6666667,37.3333333 L42.6666667,26.6666667 L53.3335,26.6666667 L53.3335,21.3333333 L42.6666667,21.3333333 L42.6666667,16 L37.3333333,16 L37.3333333,21.3333333 L26.6666667,21.3333333 L26.6666667,42.6666667 L37.3333333,42.6666667 L37.3333333,53.3333333 L26.6666667,53.3333333 L26.6666667,58.6666667 L37.3333333,58.6666667 L37.3333333,64 L42.6666667,64 L42.6666667,58.6666667 L53.3335,58.6666667 L53.3335,37.3333333 L42.6666667,37.3333333 Z M37.3333333,37.3333333 L32,37.3333333 L32,26.6666667 L37.3333333,26.6666667 L37.3333333,37.3333333 Z M48.0001667,53.3333333 L42.6666667,53.3333333 L42.6666667,42.6666667 L48.0001667,42.6666667 L48.0001667,53.3333333 Z" id="Shape"></path>
            </g>
        </g>
    </g>
</svg>