<!-- Generated by IcoMoon.io -->
<svg version="1.1" xmlns="http://www.w3.org/2000/svg" width="1024" height="1024" viewBox="0 0 1024 1024">
<title></title>
<g id="icomoon-ignore">
</g>
<path fill="#000" d="M160 352h736v288h-159.811c-35.451 0-64.189 28.375-64.189 63.939v192.061h-448.19c-35.241 0-63.81-28.852-63.81-64.028v-479.972zM160 320v-95.972c0-35.361 28.852-64.028 64.028-64.028h607.945c35.361 0 64.028 28.589 64.028 63.74v96.26h-736zM704 896v-191.906c0-17.725 14.431-32.094 31.705-32.094h160.295l-192 224zM256 448v32h544v-32h-544zM256 544v32h544v-32h-544zM256 640v32h352v-32h-352zM256 736v32h352v-32h-352z"></path>
</svg>
