<?xml version="1.0" encoding="UTF-8"?>
<svg width="24px" height="24px" viewBox="0 0 24 24" version="1.1" xmlns="http://www.w3.org/2000/svg" xmlns:xlink="http://www.w3.org/1999/xlink">
    <!-- Generator: Sketch 60 (88103) - https://sketch.com -->
    <title>Group</title>
    <desc>Created with Sketch.</desc>
    <g id="Page-1" stroke="none" stroke-width="1" fill="none" fill-rule="evenodd">
        <g id="Spendings" transform="translate(-1288.000000, -697.000000)" fill="#858585" fill-rule="nonzero">
            <g id="Group" transform="translate(1288.000000, 697.000000)">
                <path d="M21.6,0 L2.4,0 C1.08,0 0,1.0125 0,2.25 L0,21.75 C0,22.9875 1.08,24 2.4,24 L21.6,24 C22.92,24 24,22.9875 24,21.75 L24,2.25 C24,1.0125 22.92,0 21.6,0 Z M20.8,21 L3.2,21 L3.2,3 L20.8,3 L20.8,21 Z M6.4,10.5 L17.6,10.5 L17.6,12 L6.4,12 L6.4,10.5 Z M6.4,13.5 L17.6,13.5 L17.6,15 L6.4,15 L6.4,13.5 Z M6.4,16.5 L17.6,16.5 L17.6,18 L6.4,18 L6.4,16.5 Z M6.4,7.5 L17.6,7.5 L17.6,9 L6.4,9 L6.4,7.5 Z" id="Shape"></path>
            </g>
        </g>
    </g>
</svg>